# xmcd
#
# Track frame offsets: 
#        150
#        17163
#        41399
#        58204
#        77409
#        90225
#        101561
#        115019
#        130175
#        139513
#        151276
#        161378
#        175114
#        184873
#        196158
#        207641
#        224994
#        244560
#
# Disc length: 3421 seconds
#
# Revision: 0
# Processed by: cddbd v1.5.2PL0 Copyright (c) Steve Scherf et al.
# Submitted via: ExactAudioCopy v0.95b4
#
DISCID=ed0d5b12
DTITLE=Various Artist - Memories CD6
DYEAR=2008
DGENRE=Pop
TTITLE0=Righteous Brothers - You've Lost That Lovin' Feelin
TTITLE1=Elton John - Philadelphia Freedom
TTITLE2=Cher - I Found Someone
TTITLE3=Commodores - Easy
TTITLE4=Dusty Springfield - You Don't Have To Say You Love Me
TTITLE5=The Platters - Summertime
TTITLE6=Patti Page - Changing Partners
TTITLE7=Engelbert Humperdinck - A Man Without Love
TTITLE8=Joe Dowell - Wooden Heart
TTITLE9=Freddy Fender - Before The Next Teardrop Falls
TTITLE10=Bill Haley and His Comets - Rock Around The Clock
TTITLE11=The Four Aces - Love Is A Many Splendored Thing
TTITLE12=Georgia Gibbs - Seven Lonely Days
TTITLE13=Paul and Paula - Hey Paula
TTITLE14=Dinah Washington - What A Difference A Day Made
TTITLE15=Brenda K Starr - I Still Believe
TTITLE16=Gloria Gaynor - I Will Survive
TTITLE17=Nat King Cole - Unforgettable
EXTD=
EXTT0=
EXTT1=
EXTT2=
EXTT3=
EXTT4=
EXTT5=
EXTT6=
EXTT7=
EXTT8=
EXTT9=
EXTT10=
EXTT11=
EXTT12=
EXTT13=
EXTT14=
EXTT15=
EXTT16=
EXTT17=
PLAYORDER=
